<?xml version="1.0" standalone="no"?>
<!DOCTYPE svg PUBLIC "-//W3C//DTD SVG 20010904//EN"
 "http://www.w3.org/TR/2001/REC-SVG-20010904/DTD/svg10.dtd">
<svg version="1.0" xmlns="http://www.w3.org/2000/svg"
 width="200.000000pt" height="117.000000pt" viewBox="0 0 200.000000 117.000000"
 preserveAspectRatio="xMidYMid meet">

<g transform="translate(0.000000,117.000000) scale(0.100000,-0.100000)"
fill="#000000" stroke="none">
<path d="M767 1094 c-17 -25 -46 -69 -64 -99 l-31 -53 71 -6 c40 -4 98 -9 130
-12 l57 -6 0 36 c0 60 -79 186 -116 186 -8 0 -29 -21 -47 -46z"/>
<path d="M1028 978 c-66 -72 -66 -75 0 -88 31 -7 106 -23 166 -35 60 -13 115
-21 122 -18 66 25 -92 155 -215 177 -31 5 -38 2 -73 -36z"/>
<path d="M1875 909 c-32 -22 -75 -54 -95 -70 l-37 -30 28 -29 c16 -16 29 -38
29 -50 0 -27 -26 -77 -46 -88 -13 -7 1 -22 72 -75 110 -83 139 -95 156 -64 14
25 18 373 5 420 -11 39 -42 35 -112 -14z"/>
<path d="M1403 873 l-48 -47 35 -8 c60 -13 240 -22 240 -12 0 6 -17 26 -37 45
-90 86 -121 89 -190 22z"/>
<path d="M515 893 c-134 -21 -302 -80 -416 -147 -126 -74 -126 -92 -3 -128 41
-11 74 -25 74 -30 0 -4 -31 -8 -70 -8 -89 0 -90 -13 -7 -61 76 -45 145 -69
195 -69 77 0 239 128 261 205 9 32 7 46 -9 83 -25 56 -15 72 45 72 40 0 219
-28 410 -65 92 -18 598 -32 708 -21 65 7 68 9 52 26 -13 14 -39 19 -133 25
-162 9 -294 28 -527 76 -181 37 -217 41 -375 44 -96 2 -188 1 -205 -2z m-230
-133 c37 -41 -23 -98 -74 -70 -24 12 -29 58 -9 78 19 19 63 14 83 -8z"/>
<path d="M227 744 c-14 -15 -6 -34 14 -34 14 0 19 5 17 17 -3 18 -20 27 -31
17z"/>
<path d="M560 766 c0 -2 7 -17 15 -32 20 -39 19 -77 -4 -123 -22 -41 -116
-133 -162 -157 -16 -8 -29 -17 -29 -19 0 -4 23 -11 132 -41 11 -3 17 2 20 18
5 34 36 33 103 -3 58 -31 63 -31 150 -26 115 7 232 42 382 112 209 99 372 145
513 145 42 0 61 5 73 18 10 10 17 22 17 27 0 4 -100 5 -222 1 -282 -8 -462 4
-707 49 -171 31 -281 43 -281 31z m335 -87 c61 -29 32 -105 -58 -150 -67 -35
-171 -24 -212 21 -17 19 -17 21 -2 38 21 23 21 31 1 54 -21 22 -6 45 34 51 55
10 207 1 237 -14z"/>
<path d="M688 673 c-42 -5 -43 -5 -26 -33 10 -16 10 -24 0 -40 -20 -32 -15
-38 40 -55 69 -20 120 -7 171 46 43 46 45 56 15 68 -29 10 -151 19 -200 14z"/>
<path d="M1503 601 c-45 -9 -85 -19 -88 -23 -3 -3 14 -15 38 -27 37 -18 49
-19 78 -10 39 13 99 55 99 70 0 13 -31 10 -127 -10z"/>
<path d="M1201 497 c-73 -34 -134 -66 -134 -72 0 -13 119 -75 143 -75 23 0
112 80 140 126 23 36 21 84 -3 84 -6 -1 -72 -29 -146 -63z"/>
<path d="M571 388 c7 -12 35 -46 62 -75 43 -46 55 -53 88 -53 45 0 51 16 17
47 -33 30 -97 70 -141 88 l-38 16 12 -23z"/>
<path d="M1388 223 c-9 -2 -18 -16 -20 -30 -2 -15 -9 -29 -17 -31 -11 -4 -13
2 -8 27 6 27 4 32 -10 29 -15 -3 -34 -72 -42 -150 -1 -5 6 -8 14 -8 8 0 17 14
21 35 3 20 12 35 20 35 10 0 12 -8 8 -30 -5 -22 -3 -30 8 -30 10 0 19 24 29
80 9 44 15 79 15 79 -1 -1 -9 -3 -18 -6z"/>
<path d="M652 204 c-29 -20 -28 -48 4 -68 30 -20 27 -41 -7 -41 -33 0 -32 -29
2 -33 54 -6 77 52 37 95 -17 18 -19 26 -9 36 9 9 14 9 21 -3 7 -11 12 -12 21
-3 30 30 -29 45 -69 17z"/>
<path d="M757 213 c-3 -5 -12 -34 -21 -65 -9 -32 -19 -64 -22 -73 -4 -10 0
-15 11 -15 9 0 19 9 22 20 7 26 33 26 33 0 0 -11 7 -20 15 -20 12 0 15 14 15
64 0 35 3 71 6 80 5 12 -1 16 -24 16 -17 0 -33 -3 -35 -7z m26 -56 c-3 -20
-10 -37 -15 -37 -5 0 -6 10 -3 23 4 12 9 30 12 40 8 31 13 13 6 -26z"/>
<path d="M845 208 c-9 -26 -26 -140 -22 -145 3 -2 16 -1 31 3 27 7 36 24 12
24 -12 0 -12 8 0 58 7 31 13 60 14 65 0 12 -30 8 -35 -5z"/>
<path d="M910 205 c0 -8 5 -15 11 -15 11 0 10 -11 -8 -102 -4 -21 -2 -28 10
-28 17 0 23 14 32 82 8 53 31 71 41 32 4 -14 4 -46 0 -71 -5 -38 -4 -44 10
-39 9 3 18 6 20 6 2 0 4 7 4 15 0 15 47 115 54 115 2 0 -2 -30 -9 -67 -7 -38
-11 -70 -9 -72 11 -12 32 12 38 43 4 22 13 36 21 36 8 0 15 5 15 10 0 6 -6 10
-14 10 -23 0 -7 38 18 42 22 4 22 3 15 -46 -5 -28 -11 -61 -14 -74 -5 -19 -2
-23 12 -20 13 2 20 21 29 73 7 39 13 73 13 78 1 4 -32 7 -72 7 -70 0 -74 -1
-84 -27 l-11 -28 -1 26 c-1 25 -4 26 -61 28 -47 1 -60 -2 -60 -14z"/>
<path d="M1220 200 c-26 -26 -25 -32 5 -60 30 -28 28 -45 -6 -45 -31 0 -32
-29 -2 -33 59 -8 84 50 41 95 -17 18 -19 26 -9 36 9 9 14 9 20 -2 10 -16 31
-6 31 15 0 21 -56 18 -80 -6z"/>
</g>
</svg>
